<svg width="22" height="22" viewBox="0 0 22 22" fill="none" xmlns="http://www.w3.org/2000/svg">
    <path d="M9.167 9.166c.506 0 .916.41.916.917v5.5a.917.917 0 0 1-1.833 0v-5.5c0-.506.41-.917.917-.917zM13.75 10.083a.917.917 0 1 0-1.833 0v5.5a.917.917 0 1 0 1.833 0v-5.5z" fill="#D23340"/>
    <path fill-rule="evenodd" clip-rule="evenodd" d="M15.492 5.5a4.585 4.585 0 0 0-8.984 0H2.75a.917.917 0 0 0 0 1.833h.98l.612 8.577a4.583 4.583 0 0 0 4.572 4.256h4.172c2.404 0 4.4-1.858 4.571-4.256l.613-8.577h.98a.917.917 0 1 0 0-1.833h-3.758zM11 3.666A2.751 2.751 0 0 0 8.406 5.5h5.187A2.751 2.751 0 0 0 11 3.666zm5.432 3.667H5.568l.603 8.446a2.75 2.75 0 0 0 2.743 2.554h4.172a2.75 2.75 0 0 0 2.743-2.554l.603-8.446z" fill="#D23340"/>
</svg>
