<svg width="31" height="31" viewBox="0 0 31 31" fill="none" xmlns="http://www.w3.org/2000/svg">
    <rect x="1.5" y="1.5" width="28" height="28" rx="14" fill="#007ADD"/>
    <path d="M19.933 9.59a1.882 1.882 0 0 0-2.738 0l-5.65 5.885a1.96 1.96 0 0 0-.49.9l-.537 2.238c-.052.22.01.453.164.614.154.16.377.224.589.17l2.148-.56c.327-.085.626-.261.864-.51l5.65-5.884a2.076 2.076 0 0 0 0-2.852zM10.5 21.354c0-.357.278-.646.62-.646h8.684c.343 0 .62.29.62.646a.634.634 0 0 1-.62.646H11.12a.634.634 0 0 1-.62-.646z" fill="#fff"/>
    <rect x="1.5" y="1.5" width="28" height="28" rx="14" stroke="#fff" stroke-width="3"/>
</svg>
