<svg width="23" height="22" viewBox="0 0 23 22" fill="none" xmlns="http://www.w3.org/2000/svg">
    <path fill-rule="evenodd" clip-rule="evenodd" d="M11.5 14.667c-1.013 0-1.833.82-1.833 1.833v.917h3.666V16.5c0-1.012-.82-1.833-1.833-1.833zM7.833 16.5a3.667 3.667 0 0 1 7.334 0v1.833c0 .507-.41.917-.917.917h-5.5a.917.917 0 0 1-.917-.917V16.5z" fill="#77879e"/>
    <path fill-rule="evenodd" clip-rule="evenodd" d="M8.655 3.833a4.583 4.583 0 0 1 5.69 0l3.667 2.903a4.584 4.584 0 0 1 1.738 3.593v4.338a4.583 4.583 0 0 1-4.583 4.583H7.833a4.583 4.583 0 0 1-4.583-4.583v-4.338c0-1.4.64-2.724 1.738-3.593l3.667-2.903zm4.552 1.437a2.75 2.75 0 0 0-3.414 0L6.126 8.173a2.75 2.75 0 0 0-1.043 2.156v4.338a2.75 2.75 0 0 0 2.75 2.75h7.334a2.75 2.75 0 0 0 2.75-2.75v-4.338a2.75 2.75 0 0 0-1.043-2.156L13.207 5.27z" fill="#77879e"/>
</svg>
