<svg width="14" height="14" viewBox="0 0 14 14" fill="none" xmlns="http://www.w3.org/2000/svg">
    <path fill-rule="evenodd" clip-rule="evenodd" d="M9.667 6.358H9v1.284h1.619c.579 0 1.048.451 1.048 1.008 0 1.182-.75 2.196-1.818 2.624l.45 1.298a.636.636 0 0 1-.422.812.673.673 0 0 1-.843-.406l-.515-1.486H5.48l-.514 1.486a.673.673 0 0 1-.844.405.636.636 0 0 1-.421-.811l.45-1.298c-1.068-.428-1.818-1.442-1.818-2.624 0-.557.47-1.008 1.048-1.008H5V6.358h-.667a.655.655 0 0 1-.666-.641V3.792c0-1.01.494-1.961 1.333-2.567a3.438 3.438 0 0 1 4 0 3.17 3.17 0 0 1 1.333 2.567v1.925a.655.655 0 0 1-.666.641zM5.8 2.252a2.063 2.063 0 0 1 2.4 0c.504.363.8.934.8 1.54v1.283H5V3.792c0-.606.296-1.177.8-1.54zm.533 5.39h1.334V6.358H6.333v1.284zm-1.047 2.566c-.797 0-1.46-.554-1.594-1.283h6.616c-.135.73-.797 1.283-1.594 1.283H5.286z" fill="url(#yy856woc6a)"/>
    <defs>
        <linearGradient id="yy856woc6a" x1="2.333" y1=".583" x2="14.057" y2="9.626" gradientUnits="userSpaceOnUse">
            <stop stop-color="#FF8A9E"/>
            <stop offset="1" stop-color="#F43F5E"/>
        </linearGradient>
    </defs>
</svg>
