<svg width="345" height="138" viewBox="0 0 345 138" fill="none" xmlns="http://www.w3.org/2000/svg">
    <path fill-rule="evenodd" clip-rule="evenodd" d="M126 1c0 7.18-5.373 13-12 13s-12-5.82-12-13H13C6.373 1 1 6.373 1 13v112c0 6.627 5.373 12 12 12h89c0-7.18 5.373-13 12-13s12 5.82 12 13h206c6.627 0 12-5.373 12-12V13c0-6.627-5.373-12-12-12H126z" fill="#5CB85C" fill-opacity=".11"/>
    <path d="M126 1V.5a.5.5 0 0 0-.5.5h.5zm-24 0h.5a.5.5 0 0 0-.5-.5V1zm0 136v.5a.5.5 0 0 0 .5-.5h-.5zm24 0h-.5a.5.5 0 0 0 .5.5v-.5zM112.441 13.386a.501.501 0 0 0-.146.99l.146-.99zm-3.408.006a.5.5 0 0 0 .424-.905l-.424.905zm-2.195-2.612a.5.5 0 0 0-.655.756l.655-.756zm-2.909-1.782a.499.499 0 1 0 .826-.563l-.826.563zm-.611-3.359a.5.5 0 1 0-.938.346l.938-.346zm-1.721-2.947a.5.5 0 0 0 .994-.115l-.994.115zM100.517.5a.5.5 0 0 0 0 1v-1zm-2.967 1a.5.5 0 0 0 0-1v1zm-2.967-1a.5.5 0 0 0 0 1v-1zm-2.966 1a.5.5 0 0 0 0-1v1zM88.65.5a.5.5 0 0 0 0 1v-1zm-2.967 1a.5.5 0 1 0 0-1v1zm-2.966-1a.5.5 0 1 0 0 1v-1zm-2.967 1a.5.5 0 0 0 0-1v1zm-2.967-1a.5.5 0 0 0 0 1v-1zm-2.966 1a.5.5 0 0 0 0-1v1zM70.85.5a.5.5 0 0 0 0 1v-1zm-2.967 1a.5.5 0 1 0 0-1v1zm-2.966-1a.5.5 0 1 0 0 1v-1zm-2.967 1a.5.5 0 0 0 0-1v1zm-2.967-1a.5.5 0 0 0 0 1v-1zm-2.966 1a.5.5 0 0 0 0-1v1zM53.05.5a.5.5 0 1 0 0 1v-1zm-2.967 1a.5.5 0 1 0 0-1v1zm-2.966-1a.5.5 0 1 0 0 1v-1zm-2.967 1a.5.5 0 0 0 0-1v1zm-2.967-1a.5.5 0 0 0 0 1v-1zm-2.966 1a.5.5 0 0 0 0-1v1zM35.25.5a.5.5 0 0 0 0 1v-1zm-2.967 1a.5.5 0 1 0 0-1v1zm-2.966-1a.5.5 0 1 0 0 1v-1zm-2.967 1a.5.5 0 0 0 0-1v1zm-2.967-1a.5.5 0 0 0 0 1v-1zm-2.966 1a.5.5 0 0 0 0-1v1zM17.45.5a.5.5 0 1 0 0 1v-1zm-2.967 1a.5.5 0 1 0 0-1v1zM11.368.606a.5.5 0 0 0 .13.991l-.13-.991zm-2.77 1.766a.5.5 0 1 0-.383-.923l.383.923zm-3.208.71a.5.5 0 1 0 .61.794l-.61-.793zM3.876 6a.5.5 0 0 0-.793-.61l.793.61zM1.449 8.215a.5.5 0 0 0 .923.383l-.923-.383zm.148 3.282a.5.5 0 1 0-.991-.129l.991.13zM.5 14.474a.5.5 0 0 0 1 0h-1zm1 2.947a.5.5 0 1 0-1 0h1zm-1 2.947a.5.5 0 1 0 1 0h-1zm1 2.948a.5.5 0 1 0-1 0h1zm-1 2.947a.5.5 0 0 0 1 0h-1zm1 2.947a.5.5 0 0 0-1 0h1zm-1 2.948a.5.5 0 0 0 1 0h-1zm1 2.947a.5.5 0 1 0-1 0h1zm-1 2.948a.5.5 0 1 0 1 0h-1zM1.5 41a.5.5 0 0 0-1 0h1zm-1 2.947a.5.5 0 0 0 1 0h-1zm1 2.948a.5.5 0 0 0-1 0h1zm-1 2.947a.5.5 0 0 0 1 0h-1zm1 2.947a.5.5 0 1 0-1 0h1zm-1 2.948a.5.5 0 1 0 1 0h-1zm1 2.947a.5.5 0 0 0-1 0h1zm-1 2.948a.5.5 0 0 0 1 0h-1zm1 2.947a.5.5 0 0 0-1 0h1zm-1 2.947a.5.5 0 1 0 1 0h-1zm1 2.948a.5.5 0 1 0-1 0h1zm-1 2.947a.5.5 0 0 0 1 0h-1zm1 2.947a.5.5 0 0 0-1 0h1zm-1 2.948a.5.5 0 0 0 1 0h-1zm1 2.947a.5.5 0 1 0-1 0h1zm-1 2.947a.5.5 0 1 0 1 0h-1zm1 2.948a.5.5 0 1 0-1 0h1zm-1 2.947a.5.5 0 1 0 1 0h-1zm1 2.948a.5.5 0 0 0-1 0h1zM.5 97a.5.5 0 0 0 1 0h-1zm1 2.947a.5.5 0 0 0-1 0h1zm-1 2.948a.5.5 0 0 0 1 0h-1zm1 2.947a.5.5 0 0 0-1 0h1zm-1 2.947a.5.5 0 1 0 1 0h-1zm1 2.948a.5.5 0 0 0-1 0h1zm-1 2.947a.5.5 0 0 0 1 0h-1zm1 2.948a.5.5 0 1 0-1 0h1zm-1 2.947a.5.5 0 0 0 1 0h-1zm1 2.947a.5.5 0 0 0-1 0h1zm-.894 3.106a.5.5 0 1 0 .991-.129l-.991.129zm1.766 2.77a.5.5 0 0 0-.923.383l.923-.383zm.71 3.208a.5.5 0 0 0 .794-.609l-.793.609zM6 134.124a.5.5 0 0 0-.61.793l.61-.793zm2.216 2.427a.5.5 0 1 0 .383-.923l-.383.923zm3.282-.148a.5.5 0 1 0-.129.991l.13-.991zm2.986 1.097a.5.5 0 0 0 0-1v1zm2.967-1a.5.5 0 0 0 0 1v-1zm2.967 1a.5.5 0 0 0 0-1v1zm2.966-1a.5.5 0 0 0 0 1v-1zm2.967 1a.5.5 0 0 0 0-1v1zm2.967-1a.5.5 0 0 0 0 1v-1zm2.966 1a.5.5 0 0 0 0-1v1zm2.967-1a.5.5 0 0 0 0 1v-1zm2.967 1a.5.5 0 0 0 0-1v1zm2.966-1a.5.5 0 0 0 0 1v-1zm2.967 1a.5.5 0 0 0 0-1v1zm2.967-1a.5.5 0 0 0 0 1v-1zm2.966 1a.5.5 0 0 0 0-1v1zm2.967-1a.5.5 0 0 0 0 1v-1zm2.967 1a.5.5 0 0 0 0-1v1zm2.966-1a.5.5 0 0 0 0 1v-1zm2.967 1a.5.5 0 0 0 0-1v1zm2.967-1a.5.5 0 0 0 0 1v-1zm2.966 1a.5.5 0 0 0 0-1v1zm2.967-1a.5.5 0 0 0 0 1v-1zm2.967 1a.5.5 0 0 0 0-1v1zm2.966-1a.5.5 0 0 0 0 1v-1zm2.967 1a.5.5 0 0 0 0-1v1zm2.967-1a.5.5 0 0 0 0 1v-1zm2.966 1a.5.5 0 0 0 0-1v1zm2.967-1a.5.5 0 0 0 0 1v-1zm2.967 1a.5.5 0 0 0 0-1v1zm2.966-1a.5.5 0 0 0 0 1v-1zm2.967 1a.5.5 0 0 0 0-1v1zm2.967-1a.5.5 0 0 0 0 1v-1zm2.074-1.077a.5.5 0 0 0-.994-.115l.994.115zm-.211-3.408a.5.5 0 1 0 .938.346l-.938-.346zm2.375-2.45a.5.5 0 0 0-.826-.563l.826.563zm1.428-3.101a.501.501 0 0 0 .655.756l-.655-.756zm3.274-.95a.5.5 0 0 0-.424-.906l.424.906zm2.838-1.889a.5.5 0 1 0 .146.989l-.146-.989zm3.264.989a.5.5 0 1 0 .146-.989l-.146.989zm3.408-.006a.5.5 0 0 0-.424.906l.424-.906zm2.195 2.612a.501.501 0 0 0 .655-.756l-.655.756zm2.909 1.782a.5.5 0 1 0-.826.563l.826-.563zm.611 3.359a.5.5 0 0 0 .938-.346l-.938.346zm1.721 2.947a.5.5 0 0 0-.994.115l.994-.115zm1.112 2.192a.5.5 0 0 0 0-1v1zm3.029-1a.5.5 0 0 0 0 1v-1zm3.03 1a.5.5 0 0 0 0-1v1zm3.029-1a.5.5 0 0 0 0 1v-1zm3.029 1a.5.5 0 0 0 0-1v1zm3.03-1a.5.5 0 0 0 0 1v-1zm3.029 1a.5.5 0 0 0 0-1v1zm3.03-1a.5.5 0 1 0 0 1v-1zm3.029 1a.5.5 0 0 0 0-1v1zm3.029-1a.5.5 0 0 0 0 1v-1zm3.03 1a.5.5 0 0 0 0-1v1zm3.029-1a.5.5 0 0 0 0 1v-1zm3.03 1a.5.5 0 0 0 0-1v1zm3.029-1a.5.5 0 0 0 0 1v-1zm3.029 1a.5.5 0 1 0 0-1v1zm3.03-1a.5.5 0 0 0 0 1v-1zm3.029 1a.5.5 0 0 0 0-1v1zm3.03-1a.5.5 0 0 0 0 1v-1zm3.029 1a.5.5 0 0 0 0-1v1zm3.03-1a.5.5 0 1 0 0 1v-1zm3.029 1a.5.5 0 0 0 0-1v1zm3.029-1a.5.5 0 0 0 0 1v-1zm3.03 1a.5.5 0 0 0 0-1v1zm3.029-1a.5.5 0 0 0 0 1v-1zm3.03 1a.5.5 0 0 0 0-1v1zm3.029-1a.5.5 0 0 0 0 1v-1zm3.029 1a.5.5 0 1 0 0-1v1zm3.03-1a.5.5 0 0 0 0 1v-1zm3.029 1a.5.5 0 0 0 0-1v1zm3.03-1a.5.5 0 1 0 0 1v-1zm3.029 1a.5.5 0 0 0 0-1v1zm3.029-1a.5.5 0 0 0 0 1v-1zm3.03 1a.5.5 0 0 0 0-1v1zm3.029-1a.5.5 0 0 0 0 1v-1zm3.03 1a.5.5 0 0 0 0-1v1zm3.029-1a.5.5 0 0 0 0 1v-1zm3.03 1a.5.5 0 0 0 0-1v1zm3.029-1a.5.5 0 0 0 0 1v-1zm3.029 1a.5.5 0 0 0 0-1v1zm3.03-1a.5.5 0 0 0 0 1v-1zm3.029 1a.5.5 0 0 0 0-1v1zm3.03-1a.5.5 0 1 0 0 1v-1zm3.029 1a.5.5 0 0 0 0-1v1zm3.029-1a.5.5 0 0 0 0 1v-1zm3.03 1a.5.5 0 0 0 0-1v1zm3.029-1a.5.5 0 0 0 0 1v-1zm3.03 1a.5.5 0 0 0 0-1v1zm3.029-1a.5.5 0 0 0 0 1v-1zm3.03 1a.5.5 0 0 0 0-1v1zm3.029-1a.5.5 0 0 0 0 1v-1zm3.029 1a.5.5 0 0 0 0-1v1zm3.03-1a.5.5 0 0 0 0 1v-1zm3.029 1a.5.5 0 0 0 0-1v1zm3.03-1a.5.5 0 1 0 0 1v-1zm3.029 1a.5.5 0 0 0 0-1v1zm3.029-1a.5.5 0 0 0 0 1v-1zm3.03 1a.5.5 0 0 0 0-1v1zm3.029-1a.5.5 0 0 0 0 1v-1zm3.03 1a.5.5 0 0 0 0-1v1zm3.029-1a.5.5 0 0 0 0 1v-1zm3.03 1a.5.5 0 0 0 0-1v1zm3.029-1a.5.5 0 0 0 0 1v-1zm3.029 1a.5.5 0 1 0 0-1v1zm3.03-1a.5.5 0 0 0 0 1v-1zm3.029 1a.5.5 0 0 0 0-1v1zm3.03-1a.5.5 0 1 0 0 1v-1zm3.029 1a.5.5 0 0 0 0-1v1zm3.029-1a.5.5 0 0 0 0 1v-1zm3.147.894a.499.499 0 1 0-.129-.991l.129.991zm2.77-1.766a.5.5 0 1 0 .383.923l-.383-.923zm3.208-.711a.5.5 0 0 0-.609-.793l.609.793zm1.514-2.916a.5.5 0 0 0 .793.609l-.793-.609zm2.427-2.216a.5.5 0 1 0-.923-.383l.923.383zm-.148-3.282a.5.5 0 0 0 .991.129l-.991-.129zm1.097-2.977a.5.5 0 0 0-1 0h1zm-1-2.947a.5.5 0 0 0 1 0h-1zm1-2.947a.5.5 0 1 0-1 0h1zm-1-2.948a.5.5 0 0 0 1 0h-1zm1-2.947a.5.5 0 0 0-1 0h1zm-1-2.948a.5.5 0 1 0 1 0h-1zm1-2.947a.5.5 0 0 0-1 0h1zm-1-2.947a.5.5 0 0 0 1 0h-1zm1-2.948a.5.5 0 0 0-1 0h1zm-1-2.947a.5.5 0 0 0 1 0h-1zm1-2.947a.5.5 0 0 0-1 0h1zm-1-2.948a.5.5 0 0 0 1 0h-1zm1-2.947a.5.5 0 0 0-1 0h1zm-1-2.948a.5.5 0 0 0 1 0h-1zm1-2.947a.5.5 0 0 0-1 0h1zm-1-2.947a.5.5 0 0 0 1 0h-1zm1-2.948a.5.5 0 0 0-1 0h1zm-1-2.947a.5.5 0 0 0 1 0h-1zm1-2.947a.5.5 0 0 0-1 0h1zm-1-2.948a.5.5 0 0 0 1 0h-1zm1-2.947a.5.5 0 0 0-1 0h1zm-1-2.947a.5.5 0 0 0 1 0h-1zm1-2.948a.5.5 0 0 0-1 0h1zm-1-2.947a.5.5 0 0 0 1 0h-1zm1-2.948a.5.5 0 0 0-1 0h1zm-1-2.947a.5.5 0 0 0 1 0h-1zm1-2.947a.5.5 0 0 0-1 0h1zm-1-2.948a.5.5 0 0 0 1 0h-1zm1-2.947a.5.5 0 0 0-1 0h1zm-1-2.947a.5.5 0 0 0 1 0h-1zm1-2.948a.5.5 0 0 0-1 0h1zm-1-2.947a.5.5 0 0 0 1 0h-1zm1-2.947a.5.5 0 0 0-1 0h1zm-1-2.948a.5.5 0 0 0 1 0h-1zm1-2.947a.5.5 0 0 0-1 0h1zm-1-2.947a.5.5 0 0 0 1 0h-1zm1-2.948a.5.5 0 0 0-1 0h1zm-1-2.947a.5.5 0 0 0 1 0h-1zm.894-3.106a.5.5 0 1 0-.991.13l.991-.13zm-1.766-2.77a.5.5 0 1 0 .923-.383l-.923.383zm-.711-3.208a.5.5 0 1 0-.793.61l.793-.61zm-2.916-1.514a.5.5 0 1 0 .609-.793l-.609.793zm-2.216-2.427a.5.5 0 1 0-.383.923l.383-.923zm-3.282.148a.5.5 0 0 0 .129-.991l-.129.991zM330.485.5a.5.5 0 0 0 0 1v-1zm-3.029 1a.5.5 0 0 0 0-1v1zm-3.03-1a.5.5 0 0 0 0 1v-1zm-3.029 1a.5.5 0 0 0 0-1v1zm-3.029-1a.5.5 0 1 0 0 1v-1zm-3.03 1a.5.5 0 0 0 0-1v1zm-3.029-1a.5.5 0 0 0 0 1v-1zm-3.03 1a.5.5 0 1 0 0-1v1zm-3.029-1a.5.5 0 0 0 0 1v-1zm-3.029 1a.5.5 0 0 0 0-1v1zm-3.03-1a.5.5 0 0 0 0 1v-1zm-3.029 1a.5.5 0 0 0 0-1v1zm-3.03-1a.5.5 0 0 0 0 1v-1zm-3.029 1a.5.5 0 0 0 0-1v1zm-3.029-1a.5.5 0 1 0 0 1v-1zm-3.03 1a.5.5 0 0 0 0-1v1zm-3.029-1a.5.5 0 0 0 0 1v-1zm-3.03 1a.5.5 0 0 0 0-1v1zm-3.029-1a.5.5 0 0 0 0 1v-1zm-3.03 1a.5.5 0 1 0 0-1v1zm-3.029-1a.5.5 0 0 0 0 1v-1zm-3.029 1a.5.5 0 0 0 0-1v1zm-3.03-1a.5.5 0 0 0 0 1v-1zm-3.029 1a.5.5 0 0 0 0-1v1zm-3.03-1a.5.5 0 0 0 0 1v-1zm-3.029 1a.5.5 0 0 0 0-1v1zm-3.029-1a.5.5 0 1 0 0 1v-1zm-3.03 1a.5.5 0 0 0 0-1v1zm-3.029-1a.5.5 0 0 0 0 1v-1zm-3.03 1a.5.5 0 1 0 0-1v1zm-3.029-1a.5.5 0 0 0 0 1v-1zm-3.029 1a.5.5 0 0 0 0-1v1zm-3.03-1a.5.5 0 0 0 0 1v-1zm-3.029 1a.5.5 0 0 0 0-1v1zm-3.03-1a.5.5 0 0 0 0 1v-1zm-3.029 1a.5.5 0 0 0 0-1v1zm-3.03-1a.5.5 0 0 0 0 1v-1zm-3.029 1a.5.5 0 0 0 0-1v1zm-3.029-1a.5.5 0 0 0 0 1v-1zm-3.03 1a.5.5 0 0 0 0-1v1zm-3.029-1a.5.5 0 0 0 0 1v-1zm-3.03 1a.5.5 0 1 0 0-1v1zm-3.029-1a.5.5 0 0 0 0 1v-1zm-3.029 1a.5.5 0 0 0 0-1v1zm-3.03-1a.5.5 0 0 0 0 1v-1zm-3.029 1a.5.5 0 0 0 0-1v1zm-3.03-1a.5.5 0 0 0 0 1v-1zm-3.029 1a.5.5 0 0 0 0-1v1zm-3.029-1a.5.5 0 1 0 0 1v-1zm-3.03 1a.5.5 0 0 0 0-1v1zm-3.029-1a.5.5 0 0 0 0 1v-1zm-3.03 1a.5.5 0 0 0 0-1v1zm-3.029-1a.5.5 0 0 0 0 1v-1zm-3.03 1a.5.5 0 1 0 0-1v1zm-3.029-1a.5.5 0 0 0 0 1v-1zm-3.029 1a.5.5 0 0 0 0-1v1zm-3.03-1a.5.5 0 0 0 0 1v-1zm-3.029 1a.5.5 0 0 0 0-1v1zm-3.03-1a.5.5 0 0 0 0 1v-1zm-3.029 1a.5.5 0 0 0 0-1v1zm-3.03-1a.5.5 0 0 0 0 1v-1zm-3.029 1a.5.5 0 0 0 0-1v1zm-3.029-1a.5.5 0 1 0 0 1v-1zm-3.03 1a.5.5 0 0 0 0-1v1zm-3.029-1a.5.5 0 0 0 0 1v-1zm-3.03 1a.5.5 0 1 0 0-1v1zm-3.029-1a.5.5 0 0 0 0 1v-1zm-3.029 1a.5.5 0 0 0 0-1v1zm-2.106 1.077a.5.5 0 0 0 .994.115l-.994-.115zm.211 3.408a.5.5 0 1 0-.938-.346l.938.346zm-2.375 2.45a.5.5 0 0 0 .826.563l-.826-.563zm-1.428 3.1a.5.5 0 0 0-.655-.755l.655.756zm-3.274.951a.5.5 0 0 0 .424.906l-.424-.905zm-2.838 1.89a.5.5 0 0 0-.146-.99l.146.99zM114 13.5a10.69 10.69 0 0 1-1.559-.114l-.146.99c.558.082 1.127.124 1.705.124v-1zm-4.543-1.014a11.356 11.356 0 0 1-2.619-1.706l-.655.756a12.327 12.327 0 0 0 2.85 1.856l.424-.905zm-4.702-4.051a12.8 12.8 0 0 1-1.437-2.796l-.938.346c.397 1.08.92 2.09 1.549 3.013l.826-.563zm-2.164-5.858A13.656 13.656 0 0 1 102.5 1h-1c0 .573.033 1.137.097 1.692l.994-.115zM102 .5h-1.483v1H102v-1zm-4.45 0h-2.967v1h2.967v-1zm-5.933 0H88.65v1h2.967v-1zm-5.934 0h-2.966v1h2.966v-1zM79.75.5h-2.967v1h2.967v-1zm-5.933 0H70.85v1h2.967v-1zm-5.934 0h-2.966v1h2.966v-1zM61.95.5h-2.967v1h2.967v-1zm-5.933 0H53.05v1h2.967v-1zm-5.934 0h-2.966v1h2.966v-1zM44.15.5h-2.967v1h2.967v-1zm-5.933 0H35.25v1h2.967v-1zm-5.934 0h-2.966v1h2.966v-1zM26.35.5h-2.967v1h2.967v-1zm-5.933 0H17.45v1h2.967v-1zm-5.934 0H13v1h1.483v-1zM13 .5c-.553 0-1.098.036-1.632.106l.13.991c.49-.064.993-.097 1.502-.097v-1zm-4.785.949A12.488 12.488 0 0 0 5.39 3.083l.61.793a11.487 11.487 0 0 1 2.598-1.504l-.383-.923zm-5.132 3.94c-.661.86-1.213 1.81-1.634 2.826l.923.383C2.76 7.663 3.267 6.791 3.876 6l-.793-.61zM.606 11.369C.536 11.902.5 12.448.5 13h1c0-.51.033-1.011.097-1.503l-.991-.129zM.5 13v1.474h1V13h-1zm0 4.421v2.947h1v-2.947h-1zm0 5.895v2.947h1v-2.947h-1zm0 5.895v2.947h1V29.21h-1zm0 5.894v2.948h1v-2.948h-1zM.5 41v2.947h1V41h-1zm0 5.895v2.947h1v-2.947h-1zm0 5.894v2.948h1v-2.948h-1zm0 5.895v2.948h1v-2.948h-1zm0 5.895v2.947h1V64.58h-1zm0 5.895v2.947h1v-2.947h-1zm0 5.894v2.948h1v-2.948h-1zm0 5.895v2.947h1v-2.947h-1zm0 5.895v2.947h1v-2.947h-1zm0 5.895V97h1v-2.947h-1zm0 5.894v2.948h1v-2.948h-1zm0 5.895v2.947h1v-2.947h-1zm0 5.895v2.947h1v-2.947h-1zm0 5.895v2.947h1v-2.947h-1zm0 5.894V125h1v-1.474h-1zM.5 125c0 .553.036 1.098.106 1.632l.991-.129A11.618 11.618 0 0 1 1.5 125h-1zm.949 4.785a12.498 12.498 0 0 0 1.634 2.825l.793-.609a11.492 11.492 0 0 1-1.504-2.599l-.923.383zm3.94 5.132c.86.661 1.81 1.213 2.826 1.634l.383-.923A11.477 11.477 0 0 1 6 134.124l-.61.793zm5.979 2.477c.534.07 1.08.106 1.632.106v-1c-.51 0-1.011-.033-1.503-.097l-.129.991zM13 137.5h1.483v-1H13v1zm4.45 0h2.967v-1H17.45v1zm5.933 0h2.967v-1h-2.967v1zm5.934 0h2.966v-1h-2.966v1zm5.933 0h2.967v-1H35.25v1zm5.933 0h2.967v-1h-2.967v1zm5.934 0h2.966v-1h-2.966v1zm5.933 0h2.967v-1H53.05v1zm5.933 0h2.967v-1h-2.967v1zm5.934 0h2.966v-1h-2.966v1zm5.933 0h2.967v-1H70.85v1zm5.933 0h2.967v-1h-2.967v1zm5.934 0h2.966v-1h-2.966v1zm5.933 0h2.967v-1H88.65v1zm5.933 0h2.967v-1h-2.967v1zm5.934 0H102v-1h-1.483v1zm1.983-.5c0-.534.031-1.061.091-1.577l-.994-.115A14.758 14.758 0 0 0 101.5 137h1zm.818-4.639a12.794 12.794 0 0 1 1.437-2.796l-.826-.563a13.808 13.808 0 0 0-1.549 3.013l.938.346zm3.52-5.141a11.317 11.317 0 0 1 2.619-1.706l-.424-.906a12.327 12.327 0 0 0-2.85 1.856l.655.756zm5.603-2.606c.51-.075 1.03-.114 1.559-.114v-1c-.578 0-1.147.042-1.705.125l.146.989zM114 124.5c.529 0 1.049.039 1.559.114l.146-.989A11.58 11.58 0 0 0 114 123.5v1zm4.543 1.014a11.317 11.317 0 0 1 2.619 1.706l.655-.756a12.327 12.327 0 0 0-2.85-1.856l-.424.906zm4.702 4.051a12.794 12.794 0 0 1 1.437 2.796l.938-.346a13.808 13.808 0 0 0-1.549-3.013l-.826.563zm2.164 5.858c.06.516.091 1.043.091 1.577h1c0-.573-.033-1.137-.097-1.692l-.994.115zM126 137.5h1.515v-1H126v1zm4.544 0h3.03v-1h-3.03v1zm6.059 0h3.029v-1h-3.029v1zm6.059 0h3.029v-1h-3.029v1zm6.059 0h3.029v-1h-3.029v1zm6.058 0h3.03v-1h-3.03v1zm6.059 0h3.03v-1h-3.03v1zm6.059 0h3.029v-1h-3.029v1zm6.059 0h3.029v-1h-3.029v1zm6.059 0h3.029v-1h-3.029v1zm6.059 0h3.029v-1h-3.029v1zm6.058 0h3.03v-1h-3.03v1zm6.059 0h3.03v-1h-3.03v1zm6.059 0h3.029v-1h-3.029v1zm6.059 0h3.029v-1h-3.029v1zm6.059 0h3.029v-1h-3.029v1zm6.058 0h3.03v-1h-3.03v1zm6.059 0h3.03v-1h-3.03v1zm6.059 0h3.03v-1h-3.03v1zm6.059 0h3.029v-1h-3.029v1zm6.059 0h3.029v-1h-3.029v1zm6.059 0h3.029v-1h-3.029v1zm6.058 0h3.03v-1h-3.03v1zm6.059 0h3.03v-1h-3.03v1zm6.059 0h3.03v-1h-3.03v1zm6.059 0h3.029v-1h-3.029v1zm6.059 0h3.029v-1h-3.029v1zm6.059 0h3.029v-1h-3.029v1zm6.058 0h3.03v-1h-3.03v1zm6.059 0h3.03v-1h-3.03v1zm6.059 0h3.03v-1h-3.03v1zm6.059 0h3.029v-1h-3.029v1zm6.059 0h3.029v-1h-3.029v1zm6.059 0h3.029v-1h-3.029v1zm6.058 0H332v-1h-1.515v1zm1.515 0c.553 0 1.098-.036 1.632-.106l-.129-.991a11.64 11.64 0 0 1-1.503.097v1zm4.785-.949a12.473 12.473 0 0 0 2.825-1.634l-.609-.793a11.481 11.481 0 0 1-2.599 1.504l.383.923zm5.132-3.941a12.473 12.473 0 0 0 1.634-2.825l-.923-.383a11.481 11.481 0 0 1-1.504 2.599l.793.609zm2.477-5.978c.07-.534.106-1.079.106-1.632h-1c0 .51-.033 1.011-.097 1.503l.991.129zM344.5 125v-1.474h-1V125h1zm0-4.421v-2.947h-1v2.947h1zm0-5.895v-2.947h-1v2.947h1zm0-5.895v-2.947h-1v2.947h1zm0-5.894v-2.948h-1v2.948h1zm0-5.895v-2.947h-1V97h1zm0-5.895v-2.947h-1v2.947h1zm0-5.895v-2.947h-1v2.947h1zm0-5.894v-2.948h-1v2.948h1zm0-5.895v-2.947h-1v2.947h1zm0-5.895V64.58h-1v2.947h1zm0-5.894v-2.948h-1v2.948h1zm0-5.895v-2.948h-1v2.948h1zm0-5.895v-2.947h-1v2.947h1zm0-5.895V41h-1v2.947h1zm0-5.894v-2.948h-1v2.948h1zm0-5.895V29.21h-1v2.947h1zm0-5.895v-2.947h-1v2.947h1zm0-5.895v-2.947h-1v2.948h1zm0-5.894V13h-1v1.474h1zm0-1.474c0-.553-.036-1.098-.106-1.632l-.991.13c.064.49.097.993.097 1.502h1zm-.949-4.785a12.463 12.463 0 0 0-1.634-2.825l-.793.61a11.477 11.477 0 0 1 1.504 2.598l.923-.383zm-3.941-5.132a12.498 12.498 0 0 0-2.825-1.634l-.383.923c.935.388 1.807.895 2.599 1.504l.609-.793zM333.632.606A12.608 12.608 0 0 0 332 .5v1c.51 0 1.011.033 1.503.097l.129-.991zM332 .5h-1.515v1H332v-1zm-4.544 0h-3.03v1h3.03v-1zm-6.059 0h-3.029v1h3.029v-1zm-6.059 0h-3.029v1h3.029v-1zm-6.059 0h-3.029v1h3.029v-1zm-6.058 0h-3.03v1h3.03v-1zm-6.059 0h-3.03v1h3.03v-1zm-6.059 0h-3.029v1h3.029v-1zm-6.059 0h-3.029v1h3.029v-1zm-6.059 0h-3.029v1h3.029v-1zm-6.059 0h-3.029v1h3.029v-1zm-6.058 0h-3.03v1h3.03v-1zm-6.059 0h-3.03v1h3.03v-1zm-6.059 0h-3.029v1h3.029v-1zm-6.059 0h-3.029v1h3.029v-1zm-6.059 0h-3.029v1h3.029v-1zm-6.058 0h-3.03v1h3.03v-1zm-6.059 0h-3.03v1h3.03v-1zm-6.059 0h-3.03v1h3.03v-1zm-6.059 0h-3.029v1h3.029v-1zm-6.059 0h-3.029v1h3.029v-1zm-6.059 0h-3.029v1h3.029v-1zm-6.058 0h-3.03v1h3.03v-1zm-6.059 0h-3.03v1h3.03v-1zm-6.059 0h-3.029v1h3.029v-1zm-6.059 0h-3.029v1h3.029v-1zm-6.059 0h-3.029v1h3.029v-1zm-6.059 0h-3.029v1h3.029v-1zm-6.058 0h-3.03v1h3.03v-1zm-6.059 0h-3.03v1h3.03v-1zm-6.059 0h-3.03v1h3.03v-1zm-6.059 0h-3.029v1h3.029v-1zm-6.059 0h-3.029v1h3.029v-1zm-6.059 0h-3.029v1h3.029v-1zm-6.058 0H126v1h1.515v-1zM125.5 1c0 .534-.031 1.06-.091 1.577l.994.115A14.75 14.75 0 0 0 126.5 1h-1zm-.818 4.64a12.801 12.801 0 0 1-1.437 2.795l.826.563a13.808 13.808 0 0 0 1.549-3.013l-.938-.346zm-3.52 5.14a11.356 11.356 0 0 1-2.619 1.707l.424.905a12.327 12.327 0 0 0 2.85-1.856l-.655-.756zm-5.603 2.606c-.51.075-1.03.114-1.559.114v1c.578 0 1.147-.042 1.705-.124l-.146-.99z" fill="#5CB85C"/>
</svg>
